<?xml version="1.0" standalone="no"?>
<!DOCTYPE svg PUBLIC "-//W3C//DTD SVG 20010904//EN"
 "http://www.w3.org/TR/2001/REC-SVG-20010904/DTD/svg10.dtd">
<svg version="1.0" xmlns="http://www.w3.org/2000/svg"
 width="700.000000pt" height="700.000000pt" viewBox="0 0 700.000000 700.000000"
 preserveAspectRatio="xMidYMid meet">
<metadata>
Created by potrace 1.11, written by Peter Selinger 2001-2013
</metadata>
<g transform="translate(0.000000,700.000000) scale(0.100000,-0.100000)"
fill="#000000" stroke="none">
<path d="M722 6580 c-40 -11 -101 -34 -135 -52 -76 -40 -218 -179 -266 -261
-55 -93 -99 -236 -111 -362 -8 -77 -10 -815 -8 -2490 l3 -2380 23 -80 c74
-264 246 -458 467 -528 l70 -22 2735 0 2735 0 70 22 c220 69 394 266 468 528
l22 80 3 2783 2 2782 -660 0 -659 0 24 -57 c14 -32 162 -380 329 -773 l305
-715 -492 -3 c-270 -1 -494 1 -498 5 -4 5 -153 352 -332 773 l-326 765 -330 3
-331 2 25 -57 c14 -32 162 -380 329 -773 l305 -715 -492 -3 c-270 -1 -494 1
-498 5 -4 5 -153 352 -332 773 l-326 765 -330 3 -331 2 25 -57 c14 -32 162
-380 329 -773 l305 -715 -492 -3 c-270 -1 -494 1 -498 5 -4 5 -153 352 -332
773 l-326 765 -198 2 c-168 2 -209 -1 -271 -17z m3648 -2177 c-1 -5 -6 -35
-13 -68 l-13 -60 -52 -3 c-59 -3 -60 -2 -41 88 l11 50 54 0 c30 0 54 -3 54 -7z
m-2369 -33 c35 -11 79 -29 97 -40 33 -20 34 -22 27 -73 -4 -29 -10 -56 -15
-60 -4 -4 -20 3 -36 16 -57 48 -115 70 -195 75 -108 6 -173 -15 -242 -78 -98
-89 -157 -235 -157 -385 1 -131 46 -201 150 -232 99 -29 244 -3 342 62 22 15
41 25 43 23 8 -8 -24 -131 -37 -139 -50 -33 -228 -64 -316 -55 -189 20 -299
132 -310 316 -15 264 168 535 391 580 79 15 191 11 258 -10z m687 -226 c113
-56 153 -169 118 -336 -21 -98 -61 -172 -127 -233 -150 -138 -383 -119 -457
38 -61 131 -19 332 96 450 76 78 138 105 248 106 57 1 80 -4 122 -25z m779 -2
c17 -12 40 -40 49 -62 l17 -39 53 48 c132 121 318 106 363 -28 18 -55 14 -104
-31 -338 l-43 -223 -52 0 c-39 0 -53 4 -53 14 0 8 18 110 41 227 44 227 45
266 8 305 -65 70 -212 16 -271 -99 -14 -28 -98 -408 -98 -444 0 -2 -25 -3 -55
-3 -30 0 -55 1 -55 3 0 1 18 95 40 207 57 292 53 336 -28 361 -74 22 -165 -22
-215 -103 -23 -37 -37 -89 -71 -255 l-42 -208 -56 -3 -55 -3 32 163 c18 90 48
238 65 331 l32 167 54 0 c59 0 59 -1 45 -64 l-9 -39 36 36 c59 57 115 78 197
75 54 -2 78 -8 102 -26z m1507 5 c89 -51 95 -124 35 -434 l-41 -213 -54 0
c-30 0 -54 3 -54 7 0 4 18 99 40 211 45 228 50 281 27 316 -36 54 -142 58
-216 7 -81 -54 -101 -102 -157 -393 l-28 -148 -53 0 c-29 0 -53 3 -53 8 0 4
27 152 62 330 l62 322 53 0 c58 0 58 -1 44 -64 l-9 -38 31 30 c82 79 228 107
311 59z m677 -6 c19 -13 44 -37 56 -53 l21 -30 7 51 7 51 54 0 c37 0 54 -4 54
-12 0 -32 -120 -618 -135 -658 -57 -159 -173 -240 -344 -240 -61 0 -175 20
-187 33 -4 3 -3 28 1 56 l7 50 46 -21 c68 -31 201 -31 257 -1 73 39 112 95
134 192 l9 41 -30 -25 c-75 -64 -193 -92 -272 -65 -150 49 -189 253 -89 460
35 72 125 162 183 183 67 25 177 19 221 -12z m-1332 7 c0 -7 -28 -155 -62
-328 l-62 -315 -58 -3 c-43 -2 -56 0 -52 10 2 7 32 156 66 331 l61 317 54 0
c37 0 54 -4 53 -12z m-2486 -1692 c32 -7 60 -16 63 -18 5 -5 -11 -86 -18 -93
-2 -2 -32 5 -67 15 -112 35 -231 21 -276 -32 -54 -64 -18 -109 121 -153 49
-15 106 -36 126 -46 71 -36 87 -117 43 -206 -60 -120 -210 -166 -409 -125 -54
12 -100 22 -101 24 -6 6 18 108 25 108 5 0 29 -9 55 -20 139 -60 304 -36 336
48 24 62 -15 96 -149 132 -97 26 -140 52 -165 100 -33 63 -1 175 64 220 81 58
222 77 352 46z m632 -5 c92 -43 138 -124 137 -243 -1 -180 -81 -322 -220 -390
-59 -29 -76 -33 -147 -33 -114 1 -181 41 -231 135 -28 53 -26 215 5 292 46
119 136 213 231 243 66 20 176 19 225 -4z m743 -7 c114 -57 155 -178 117 -342
-54 -230 -247 -364 -441 -307 -112 32 -171 125 -168 265 3 120 44 223 122 303
76 78 138 105 248 106 57 1 80 -4 122 -25z m789 0 c87 -64 91 -116 31 -426
l-42 -218 -53 0 c-36 0 -53 4 -53 13 0 6 18 104 40 215 44 223 48 276 25 309
-20 28 -86 46 -135 38 -58 -10 -124 -57 -155 -109 -20 -35 -38 -99 -69 -254
l-42 -207 -52 -3 c-43 -3 -52 0 -52 14 0 9 28 158 61 330 l61 314 55 0 55 0
-7 -32 c-4 -18 -9 -42 -12 -53 -4 -14 8 -7 41 22 63 56 114 73 203 70 55 -2
79 -7 100 -23z"/>
<path d="M2460 4052 c-94 -48 -150 -159 -150 -294 0 -126 41 -178 142 -178 73
0 115 19 166 74 56 60 84 141 84 243 1 95 -18 138 -72 165 -51 26 -109 23
-170 -10z"/>
<path d="M5470 4064 c-66 -28 -114 -89 -144 -182 -23 -67 -23 -179 -2 -221 55
-105 222 -88 301 33 64 97 83 251 39 325 -34 57 -120 77 -194 45z"/>
<path d="M2275 2369 c-42 -12 -101 -63 -130 -114 -33 -56 -58 -174 -49 -234
15 -105 53 -141 149 -141 97 0 162 48 211 155 38 82 45 202 17 267 -31 68
-107 94 -198 67z"/>
<path d="M2980 2352 c-94 -48 -150 -159 -150 -294 0 -126 41 -178 142 -178 32
0 73 6 91 14 48 20 111 95 137 162 30 81 32 206 4 255 -41 71 -134 89 -224 41z"/>
</g>
</svg>
